<mxfile host="app.diagrams.net" agent="Mozilla/5.0 (X11; Linux x86_64) AppleWebKit/537.36 (KHTML, like Gecko) Chrome/129.0.0.0 Safari/537.36" version="24.7.17">
  <diagram id="C5RBs43oDa-KdzZeNtuy" name="light_sensor">
    <mxGraphModel dx="2139" dy="1012" grid="1" gridSize="10" guides="1" tooltips="1" connect="1" arrows="1" fold="1" page="1" pageScale="1" pageWidth="827" pageHeight="1169" math="0" shadow="0">
      <root>
        <mxCell id="WIyWlLk6GJQsqaUBKTNV-0" />
        <mxCell id="WIyWlLk6GJQsqaUBKTNV-1" parent="WIyWlLk6GJQsqaUBKTNV-0" />
        <mxCell id="Y8EmxCm6DiHx-w2FvBlb-2" value="" style="edgeStyle=orthogonalEdgeStyle;rounded=0;orthogonalLoop=1;jettySize=auto;html=1;" edge="1" parent="WIyWlLk6GJQsqaUBKTNV-1" source="Y8EmxCm6DiHx-w2FvBlb-0" target="Y8EmxCm6DiHx-w2FvBlb-1">
          <mxGeometry relative="1" as="geometry" />
        </mxCell>
        <mxCell id="Y8EmxCm6DiHx-w2FvBlb-0" value="" style="ellipse;whiteSpace=wrap;html=1;aspect=fixed;" vertex="1" parent="WIyWlLk6GJQsqaUBKTNV-1">
          <mxGeometry x="205" y="90" width="80" height="80" as="geometry" />
        </mxCell>
        <mxCell id="Y8EmxCm6DiHx-w2FvBlb-4" value="" style="edgeStyle=orthogonalEdgeStyle;rounded=0;orthogonalLoop=1;jettySize=auto;html=1;" edge="1" parent="WIyWlLk6GJQsqaUBKTNV-1" source="Y8EmxCm6DiHx-w2FvBlb-1" target="Y8EmxCm6DiHx-w2FvBlb-3">
          <mxGeometry relative="1" as="geometry" />
        </mxCell>
        <mxCell id="Y8EmxCm6DiHx-w2FvBlb-1" value="&lt;div style=&quot;color: rgb(78, 91, 97); background-color: rgb(255, 255, 255); font-family: &amp;quot;Droid Sans Mono&amp;quot;, &amp;quot;monospace&amp;quot;, monospace; font-size: 14px; line-height: 19px; white-space: pre;&quot;&gt;&lt;div&gt;&lt;span style=&quot;color: #00979d;&quot;&gt;const&lt;/span&gt; &lt;span style=&quot;color: #00979d;&quot;&gt;int&lt;/span&gt; LED_PIN = &lt;span style=&quot;color: #005c5f;&quot;&gt;9,&lt;/span&gt;&lt;/div&gt;&lt;div&gt;&lt;span style=&quot;color: #00979d;&quot;&gt;int&lt;/span&gt; max = &lt;span style=&quot;color: #005c5f;&quot;&gt;0,&lt;/span&gt;&lt;/div&gt;&lt;div&gt;&lt;span style=&quot;color: #00979d;&quot;&gt;int&lt;/span&gt; min = &lt;span style=&quot;color: #005c5f;&quot;&gt;9999&lt;/span&gt;&lt;/div&gt;&lt;/div&gt;" style="whiteSpace=wrap;html=1;" vertex="1" parent="WIyWlLk6GJQsqaUBKTNV-1">
          <mxGeometry x="130" y="210" width="230" height="80" as="geometry" />
        </mxCell>
        <mxCell id="Y8EmxCm6DiHx-w2FvBlb-6" value="" style="edgeStyle=orthogonalEdgeStyle;rounded=0;orthogonalLoop=1;jettySize=auto;html=1;" edge="1" parent="WIyWlLk6GJQsqaUBKTNV-1" source="Y8EmxCm6DiHx-w2FvBlb-3" target="Y8EmxCm6DiHx-w2FvBlb-5">
          <mxGeometry relative="1" as="geometry" />
        </mxCell>
        <mxCell id="Y8EmxCm6DiHx-w2FvBlb-3" value="setup() {&amp;nbsp;&lt;span style=&quot;background-color: initial;&quot;&gt;Serial.begin(9600);&lt;/span&gt;&lt;div&gt;pinMode(LED_PIN, OUTPUT);&amp;nbsp;&lt;span style=&quot;background-color: initial;&quot;&gt;}&lt;/span&gt;&lt;/div&gt;" style="whiteSpace=wrap;html=1;" vertex="1" parent="WIyWlLk6GJQsqaUBKTNV-1">
          <mxGeometry x="130" y="340" width="230" height="70" as="geometry" />
        </mxCell>
        <mxCell id="Y8EmxCm6DiHx-w2FvBlb-8" value="" style="edgeStyle=orthogonalEdgeStyle;rounded=0;orthogonalLoop=1;jettySize=auto;html=1;" edge="1" parent="WIyWlLk6GJQsqaUBKTNV-1" source="Y8EmxCm6DiHx-w2FvBlb-5" target="Y8EmxCm6DiHx-w2FvBlb-7">
          <mxGeometry relative="1" as="geometry" />
        </mxCell>
        <mxCell id="Y8EmxCm6DiHx-w2FvBlb-5" value="int light = analogRead(A0);" style="whiteSpace=wrap;html=1;" vertex="1" parent="WIyWlLk6GJQsqaUBKTNV-1">
          <mxGeometry x="135" y="460" width="220" height="60" as="geometry" />
        </mxCell>
        <mxCell id="Y8EmxCm6DiHx-w2FvBlb-10" value="" style="edgeStyle=orthogonalEdgeStyle;rounded=0;orthogonalLoop=1;jettySize=auto;html=1;" edge="1" parent="WIyWlLk6GJQsqaUBKTNV-1" source="Y8EmxCm6DiHx-w2FvBlb-7" target="Y8EmxCm6DiHx-w2FvBlb-9">
          <mxGeometry relative="1" as="geometry" />
        </mxCell>
        <mxCell id="Y8EmxCm6DiHx-w2FvBlb-16" value="False" style="edgeLabel;html=1;align=center;verticalAlign=middle;resizable=0;points=[];" vertex="1" connectable="0" parent="Y8EmxCm6DiHx-w2FvBlb-10">
          <mxGeometry x="-0.5048" relative="1" as="geometry">
            <mxPoint as="offset" />
          </mxGeometry>
        </mxCell>
        <mxCell id="Y8EmxCm6DiHx-w2FvBlb-13" value="" style="edgeStyle=orthogonalEdgeStyle;rounded=0;orthogonalLoop=1;jettySize=auto;html=1;" edge="1" parent="WIyWlLk6GJQsqaUBKTNV-1" source="Y8EmxCm6DiHx-w2FvBlb-7" target="Y8EmxCm6DiHx-w2FvBlb-12">
          <mxGeometry relative="1" as="geometry" />
        </mxCell>
        <mxCell id="Y8EmxCm6DiHx-w2FvBlb-15" value="True" style="edgeLabel;html=1;align=center;verticalAlign=middle;resizable=0;points=[];" vertex="1" connectable="0" parent="Y8EmxCm6DiHx-w2FvBlb-13">
          <mxGeometry x="-0.1333" y="-2" relative="1" as="geometry">
            <mxPoint as="offset" />
          </mxGeometry>
        </mxCell>
        <mxCell id="Y8EmxCm6DiHx-w2FvBlb-7" value="max &amp;lt; light" style="rhombus;whiteSpace=wrap;html=1;" vertex="1" parent="WIyWlLk6GJQsqaUBKTNV-1">
          <mxGeometry x="205" y="580" width="80" height="80" as="geometry" />
        </mxCell>
        <mxCell id="Y8EmxCm6DiHx-w2FvBlb-18" value="" style="edgeStyle=orthogonalEdgeStyle;rounded=0;orthogonalLoop=1;jettySize=auto;html=1;" edge="1" parent="WIyWlLk6GJQsqaUBKTNV-1" source="Y8EmxCm6DiHx-w2FvBlb-9" target="Y8EmxCm6DiHx-w2FvBlb-17">
          <mxGeometry relative="1" as="geometry" />
        </mxCell>
        <mxCell id="Y8EmxCm6DiHx-w2FvBlb-19" value="True" style="edgeLabel;html=1;align=center;verticalAlign=middle;resizable=0;points=[];" vertex="1" connectable="0" parent="Y8EmxCm6DiHx-w2FvBlb-18">
          <mxGeometry x="-0.0381" y="1" relative="1" as="geometry">
            <mxPoint as="offset" />
          </mxGeometry>
        </mxCell>
        <mxCell id="Y8EmxCm6DiHx-w2FvBlb-21" value="" style="edgeStyle=orthogonalEdgeStyle;rounded=0;orthogonalLoop=1;jettySize=auto;html=1;" edge="1" parent="WIyWlLk6GJQsqaUBKTNV-1" source="Y8EmxCm6DiHx-w2FvBlb-9" target="Y8EmxCm6DiHx-w2FvBlb-20">
          <mxGeometry relative="1" as="geometry" />
        </mxCell>
        <mxCell id="Y8EmxCm6DiHx-w2FvBlb-9" value="min &amp;lt; light" style="rhombus;whiteSpace=wrap;html=1;" vertex="1" parent="WIyWlLk6GJQsqaUBKTNV-1">
          <mxGeometry x="205" y="720" width="80" height="80" as="geometry" />
        </mxCell>
        <mxCell id="Y8EmxCm6DiHx-w2FvBlb-14" style="edgeStyle=orthogonalEdgeStyle;rounded=0;orthogonalLoop=1;jettySize=auto;html=1;" edge="1" parent="WIyWlLk6GJQsqaUBKTNV-1" source="Y8EmxCm6DiHx-w2FvBlb-12">
          <mxGeometry relative="1" as="geometry">
            <mxPoint x="245" y="690" as="targetPoint" />
            <Array as="points">
              <mxPoint x="405" y="690" />
            </Array>
          </mxGeometry>
        </mxCell>
        <mxCell id="Y8EmxCm6DiHx-w2FvBlb-12" value="max = light" style="whiteSpace=wrap;html=1;" vertex="1" parent="WIyWlLk6GJQsqaUBKTNV-1">
          <mxGeometry x="345" y="590" width="120" height="60" as="geometry" />
        </mxCell>
        <mxCell id="Y8EmxCm6DiHx-w2FvBlb-22" style="edgeStyle=orthogonalEdgeStyle;rounded=0;orthogonalLoop=1;jettySize=auto;html=1;" edge="1" parent="WIyWlLk6GJQsqaUBKTNV-1" source="Y8EmxCm6DiHx-w2FvBlb-17">
          <mxGeometry relative="1" as="geometry">
            <mxPoint x="245" y="840" as="targetPoint" />
            <Array as="points">
              <mxPoint x="405" y="840" />
            </Array>
          </mxGeometry>
        </mxCell>
        <mxCell id="Y8EmxCm6DiHx-w2FvBlb-17" value="min = light" style="whiteSpace=wrap;html=1;" vertex="1" parent="WIyWlLk6GJQsqaUBKTNV-1">
          <mxGeometry x="345" y="730" width="120" height="60" as="geometry" />
        </mxCell>
        <mxCell id="Y8EmxCm6DiHx-w2FvBlb-24" value="" style="edgeStyle=orthogonalEdgeStyle;rounded=0;orthogonalLoop=1;jettySize=auto;html=1;" edge="1" parent="WIyWlLk6GJQsqaUBKTNV-1" source="Y8EmxCm6DiHx-w2FvBlb-20" target="Y8EmxCm6DiHx-w2FvBlb-23">
          <mxGeometry relative="1" as="geometry" />
        </mxCell>
        <mxCell id="Y8EmxCm6DiHx-w2FvBlb-20" value="int output = map(light, min, max, 250, 0)" style="whiteSpace=wrap;html=1;" vertex="1" parent="WIyWlLk6GJQsqaUBKTNV-1">
          <mxGeometry x="130" y="890" width="230" height="60" as="geometry" />
        </mxCell>
        <mxCell id="Y8EmxCm6DiHx-w2FvBlb-30" value="" style="edgeStyle=orthogonalEdgeStyle;rounded=0;orthogonalLoop=1;jettySize=auto;html=1;" edge="1" parent="WIyWlLk6GJQsqaUBKTNV-1" source="Y8EmxCm6DiHx-w2FvBlb-23" target="Y8EmxCm6DiHx-w2FvBlb-29">
          <mxGeometry relative="1" as="geometry" />
        </mxCell>
        <mxCell id="Y8EmxCm6DiHx-w2FvBlb-23" value="analogWrite(LED_PIN, output)" style="whiteSpace=wrap;html=1;" vertex="1" parent="WIyWlLk6GJQsqaUBKTNV-1">
          <mxGeometry x="490" y="890" width="190" height="60" as="geometry" />
        </mxCell>
        <mxCell id="Y8EmxCm6DiHx-w2FvBlb-31" style="edgeStyle=orthogonalEdgeStyle;rounded=0;orthogonalLoop=1;jettySize=auto;html=1;entryX=1;entryY=0.5;entryDx=0;entryDy=0;" edge="1" parent="WIyWlLk6GJQsqaUBKTNV-1" source="Y8EmxCm6DiHx-w2FvBlb-29" target="Y8EmxCm6DiHx-w2FvBlb-5">
          <mxGeometry relative="1" as="geometry">
            <Array as="points">
              <mxPoint x="590" y="490" />
            </Array>
          </mxGeometry>
        </mxCell>
        <mxCell id="Y8EmxCm6DiHx-w2FvBlb-29" value="output, min, max" style="shape=document;whiteSpace=wrap;html=1;boundedLbl=1;" vertex="1" parent="WIyWlLk6GJQsqaUBKTNV-1">
          <mxGeometry x="525" y="730" width="120" height="80" as="geometry" />
        </mxCell>
      </root>
    </mxGraphModel>
  </diagram>
</mxfile>
